<svg width="25" height="25" viewBox="0 0 25 25" fill="none" xmlns="http://www.w3.org/2000/svg">
<path fill-rule="evenodd" clip-rule="evenodd" d="M16.4515 1.04167C16.8828 1.04167 17.2328 1.39167 17.2328 1.82292L17.2333 2.70605C18.7542 2.81033 20.0174 3.3313 20.9114 4.22719C21.8875 5.2074 22.401 6.61677 22.3959 8.3074V17.8105C22.3959 21.2814 20.1916 23.4376 16.6448 23.4376H7.83435C4.28748 23.4376 2.08331 21.2511 2.08331 17.7314V8.30531C2.08331 5.03156 4.049 2.93015 7.25486 2.70641L7.2555 1.82292C7.2555 1.39167 7.6055 1.04167 8.03675 1.04167C8.468 1.04167 8.818 1.39167 8.818 1.82292L8.81769 2.68646H15.6698L15.6703 1.82292C15.6703 1.39167 16.0203 1.04167 16.4515 1.04167ZM20.8333 10.3167H3.64581V17.7314C3.64581 20.4043 5.13331 21.8751 7.83435 21.8751H16.6448C19.3458 21.8751 20.8334 20.4314 20.8334 17.8105L20.8333 10.3167ZM16.8762 16.8711C17.3075 16.8711 17.6575 17.2211 17.6575 17.6524C17.6575 18.0836 17.3075 18.4336 16.8762 18.4336C16.445 18.4336 16.0908 18.0836 16.0908 17.6524C16.0908 17.2211 16.4356 16.8711 16.8669 16.8711H16.8762ZM12.2538 16.8711C12.6851 16.8711 13.0351 17.2211 13.0351 17.6524C13.0351 18.0836 12.6851 18.4336 12.2538 18.4336C11.8226 18.4336 11.4684 18.0836 11.4684 17.6524C11.4684 17.2211 11.8132 16.8711 12.2445 16.8711H12.2538ZM7.62175 16.8711C8.053 16.8711 8.403 17.2211 8.403 17.6524C8.403 18.0836 8.053 18.4336 7.62175 18.4336C7.1905 18.4336 6.83529 18.0836 6.83529 17.6524C6.83529 17.2211 7.18113 16.8711 7.61238 16.8711H7.62175ZM16.8762 12.8225C17.3075 12.8225 17.6575 13.1725 17.6575 13.6038C17.6575 14.035 17.3075 14.385 16.8762 14.385C16.445 14.385 16.0908 14.035 16.0908 13.6038C16.0908 13.1725 16.4356 12.8225 16.8669 12.8225H16.8762ZM12.2538 12.8225C12.6851 12.8225 13.0351 13.1725 13.0351 13.6038C13.0351 14.035 12.6851 14.385 12.2538 14.385C11.8226 14.385 11.4684 14.035 11.4684 13.6038C11.4684 13.1725 11.8132 12.8225 12.2445 12.8225H12.2538ZM7.62175 12.8225C8.053 12.8225 8.403 13.1725 8.403 13.6038C8.403 14.035 8.053 14.385 7.62175 14.385C7.1905 14.385 6.83529 14.035 6.83529 13.6038C6.83529 13.1725 7.18113 12.8225 7.61238 12.8225H7.62175ZM15.6698 4.24896H8.81769L8.818 5.25104C8.818 5.68229 8.468 6.03229 8.03675 6.03229C7.6055 6.03229 7.2555 5.68229 7.2555 5.25104L7.25495 4.27261C4.92137 4.46864 3.64581 5.88318 3.64581 8.30531V8.75417H20.8333L20.8334 8.30531C20.8375 7.01886 20.4916 6.01886 19.8052 5.33136C19.2026 4.72699 18.3217 4.36604 17.2337 4.27311L17.2328 5.25104C17.2328 5.68229 16.8828 6.03229 16.4515 6.03229C16.0203 6.03229 15.6703 5.68229 15.6703 5.25104L15.6698 4.24896Z" fill="#1D1D1D"/>
</svg>
