<svg width="25" height="25" viewBox="0 0 25 25" fill="none" xmlns="http://www.w3.org/2000/svg">
<path fill-rule="evenodd" clip-rule="evenodd" d="M17.1209 1.04166C20.899 1.04166 23.4375 3.69375 23.4375 7.64062V16.8385C23.4375 20.7854 20.899 23.4375 17.1209 23.4375H7.35835C3.58023 23.4375 1.04169 20.7854 1.04169 16.8385V7.64062C1.04169 3.69375 3.58023 1.04166 7.35835 1.04166H17.1209ZM17.1209 2.60416H7.35835C4.47085 2.60416 2.60419 4.58021 2.60419 7.64062V16.8385C2.60419 19.899 4.47085 21.875 7.35835 21.875H17.1209C20.0094 21.875 21.875 19.899 21.875 16.8385V7.64062C21.875 4.58021 20.0094 2.60416 17.1209 2.60416ZM7.41783 9.58594C7.84908 9.58594 8.19908 9.93594 8.19908 10.3672V17.513C8.19908 17.9443 7.84908 18.2943 7.41783 18.2943C6.98658 18.2943 6.63658 17.9443 6.63658 17.513V10.3672C6.63658 9.93594 6.98658 9.58594 7.41783 9.58594ZM12.2793 6.1651C12.7105 6.1651 13.0605 6.5151 13.0605 6.94635V17.512C13.0605 17.9432 12.7105 18.2932 12.2793 18.2932C11.848 18.2932 11.498 17.9432 11.498 17.512V6.94635C11.498 6.5151 11.848 6.1651 12.2793 6.1651ZM17.0609 13.362C17.4921 13.362 17.8421 13.712 17.8421 14.1432V17.512C17.8421 17.9432 17.4921 18.2932 17.0609 18.2932C16.6296 18.2932 16.2796 17.9432 16.2796 17.512V14.1432C16.2796 13.712 16.6296 13.362 17.0609 13.362Z" fill="#1D1D1D"/>
</svg>
