<svg width="28" height="28" viewBox="0 0 28 28" fill="none" xmlns="http://www.w3.org/2000/svg">
<path d="M14.0001 11.1918C14.5316 11.1918 14.9657 11.6248 14.9657 12.1563C14.9657 12.6413 15.3599 13.0344 15.8449 13.0344C16.3288 13.0344 16.7231 12.6413 16.7231 12.1563C16.7231 10.9648 15.9468 9.95933 14.8782 9.59169V9.09339C14.8782 8.60948 14.4851 8.21416 14.0001 8.21416C13.514 8.21416 13.1209 8.60948 13.1209 9.09339V9.59169C12.0523 9.95933 11.2783 10.9648 11.2783 12.1563C11.2783 13.6589 12.4986 14.8792 14.0001 14.8792C14.5316 14.8792 14.9657 15.3133 14.9657 15.8448C14.9657 16.3775 14.5316 16.8104 14.0001 16.8104C13.4686 16.8104 13.0356 16.3775 13.0356 15.8448C13.0356 15.3598 12.6414 14.9656 12.1564 14.9656C11.6703 14.9656 11.2783 15.3598 11.2783 15.8448C11.2783 17.0363 12.0523 18.0407 13.1209 18.4083V18.9066C13.1209 19.3927 13.514 19.787 14.0001 19.787C14.4851 19.787 14.8782 19.3927 14.8782 18.9066V18.4083C15.9468 18.0407 16.7231 17.0363 16.7231 15.8448C16.7231 14.3433 15.5017 13.1219 14.0001 13.1219C13.4686 13.1219 13.0356 12.6889 13.0356 12.1563C13.0356 11.6248 13.4686 11.1918 14.0001 11.1918ZM21.3628 18.88C21.7936 19.107 22.324 18.9421 22.5499 18.5146C23.2807 17.1338 23.6661 15.5724 23.6661 14C23.6661 8.67149 19.3286 4.33516 14.0001 4.33516C8.67049 4.33516 4.33416 8.67149 4.33416 14C4.33416 19.3296 8.67049 23.666 14.0001 23.666C15.5493 23.666 17.0885 23.2917 18.4516 22.5819C18.8824 22.3593 19.0496 21.8267 18.8259 21.397C18.6022 20.9685 18.0718 20.798 17.6399 21.0227C16.5116 21.6118 15.2857 21.9097 14.0001 21.9097C9.63941 21.9097 6.0904 18.3618 6.0904 14C6.0904 9.64042 9.63941 6.0914 14.0001 6.0914C18.3608 6.0914 21.9098 9.64042 21.9098 14C21.9098 15.2878 21.5931 16.5646 20.9974 17.6919C20.7693 18.1215 20.9332 18.653 21.3628 18.88ZM14.0001 0.818253C11.4543 0.818253 8.98276 1.54688 6.85335 2.9233C6.44474 3.18685 6.32847 3.73055 6.59202 4.13805C6.85667 4.54555 7.39816 4.66072 7.80788 4.39938C9.65049 3.20789 11.7943 2.57671 14.0001 2.57671C20.2998 2.57671 25.4234 7.70147 25.4234 14C25.4234 20.2997 20.2998 25.4244 14.0001 25.4244C7.70047 25.4244 2.5757 20.2997 2.5757 14C2.5757 11.8152 3.19471 9.69024 4.36738 7.8576C4.62871 7.44789 4.50912 6.90418 4.0994 6.64285C3.69079 6.38152 3.14709 6.50111 2.88687 6.90972C1.5337 9.02584 0.818359 11.4797 0.818359 14C0.818359 21.2697 6.73044 27.1818 14.0001 27.1818C21.2687 27.1818 27.1819 21.2697 27.1819 14C27.1819 6.73255 21.2687 0.818253 14.0001 0.818253Z" fill="#0C973B"/>
</svg>
