<svg width="25" height="25" viewBox="0 0 25 25" fill="none" xmlns="http://www.w3.org/2000/svg">
<path fill-rule="evenodd" clip-rule="evenodd" d="M11.9709 2.12156C12.4022 2.12156 12.7522 2.47156 12.7522 2.90281C12.7522 3.33406 12.4022 3.68406 11.9709 3.68406H8.07614C5.38448 3.68406 3.64594 5.52781 3.64594 8.38094V17.0414C3.64594 19.8945 5.38448 21.7382 8.07614 21.7382H17.2678C19.9595 21.7382 21.6991 19.8945 21.6991 17.0414V12.8455C21.6991 12.4143 22.0491 12.0643 22.4803 12.0643C22.9116 12.0643 23.2616 12.4143 23.2616 12.8455V17.0414C23.2616 20.7851 20.8522 23.3007 17.2678 23.3007H8.07614C4.49177 23.3007 2.08344 20.7851 2.08344 17.0414V8.38094C2.08344 4.63719 4.49177 2.12156 8.07614 2.12156H11.9709ZM21.0434 3.03677L22.3111 4.30448C22.9289 4.92115 23.2684 5.74094 23.2674 6.61385C23.2674 7.48677 22.9278 8.30552 22.3111 8.92115L14.4893 16.743C13.9153 17.317 13.1507 17.6336 12.3382 17.6336H8.43614C8.22573 17.6336 8.02364 17.5482 7.87677 17.3972C7.72989 17.2472 7.64968 17.0441 7.65489 16.8326L7.75281 12.8961C7.7726 12.1128 8.08823 11.3764 8.64239 10.8211H8.64343L16.4278 3.03677C17.7007 1.76594 19.7705 1.76594 21.0434 3.03677ZM15.7866 5.88677L9.7476 11.9264C9.47781 12.1961 9.32468 12.5545 9.31531 12.9347L9.23718 16.0711H12.3382C12.7341 16.0711 13.1049 15.918 13.3851 15.6378L19.4605 9.56073L15.7866 5.88677ZM17.532 4.14198L16.8907 4.78156L20.5647 8.45656L21.207 7.81594C21.5278 7.4951 21.7049 7.06802 21.7049 6.61385C21.7049 6.15865 21.5278 5.73052 21.207 5.40969L19.9393 4.14198C19.2757 3.48052 18.1966 3.48052 17.532 4.14198Z" fill="#1D1D1D"/>
</svg>
