<svg width="32" height="31" viewBox="0 0 32 31" fill="none" xmlns="http://www.w3.org/2000/svg">
<path d="M31 4.35938H29.5V0.484375C29.5 0.355911 29.4473 0.232708 29.3536 0.14187C29.2598 0.0510322 29.1326 0 29 0C28.8674 0 28.7402 0.0510322 28.6464 0.14187C28.5527 0.232708 28.5 0.355911 28.5 0.484375V4.35938H27C26.8674 4.35938 26.7402 4.41041 26.6464 4.50125C26.5527 4.59208 26.5 4.71529 26.5 4.84375V10.1719H24C23.8674 10.1719 23.7402 10.2229 23.6464 10.3137C23.5527 10.4046 23.5 10.5278 23.5 10.6562C23.5 10.7847 23.5527 10.9079 23.6464 10.9988C23.7402 11.0896 23.8674 11.1406 24 11.1406H30.5V13.0781H12.5C12.3674 13.0781 12.2402 13.1292 12.1464 13.22C12.0527 13.3108 12 13.434 12 13.5625C12 13.691 12.0527 13.8142 12.1464 13.905C12.2402 13.9958 12.3674 14.0469 12.5 14.0469H15.5V20.8281H8.5V14.0469H10.5C10.6326 14.0469 10.7598 13.9958 10.8536 13.905C10.9473 13.8142 11 13.691 11 13.5625C11 13.434 10.9473 13.3108 10.8536 13.22C10.7598 13.1292 10.6326 13.0781 10.5 13.0781H1.5V11.1406H22C22.1326 11.1406 22.2598 11.0896 22.3536 10.9988C22.4473 10.9079 22.5 10.7847 22.5 10.6562C22.5 10.5278 22.4473 10.4046 22.3536 10.3137C22.2598 10.2229 22.1326 10.1719 22 10.1719H20.5V8.23438C20.5 6.13558 17.5165 4.53666 16.5 4.05277V0.484375C16.5 0.355911 16.4473 0.232708 16.3536 0.14187C16.2598 0.0510322 16.1326 0 16 0C15.8674 0 15.7402 0.0510322 15.6464 0.14187C15.5527 0.232708 15.5 0.355911 15.5 0.484375V4.05277C14.4835 4.53714 11.5 6.13558 11.5 8.23438V10.1719H5.5V4.84375C5.5 4.71529 5.44732 4.59208 5.35355 4.50125C5.25979 4.41041 5.13261 4.35938 5 4.35938H3.5V0.484375C3.5 0.355911 3.44732 0.232708 3.35355 0.14187C3.25979 0.0510322 3.13261 0 3 0C2.86739 0 2.74021 0.0510322 2.64645 0.14187C2.55268 0.232708 2.5 0.355911 2.5 0.484375V4.35938H1C0.867392 4.35938 0.740215 4.41041 0.646447 4.50125C0.552678 4.59208 0.5 4.71529 0.5 4.84375V30.5156C0.5 30.6441 0.552678 30.7673 0.646447 30.8581C0.740215 30.949 0.867392 31 1 31H31C31.1326 31 31.2598 30.949 31.3536 30.8581C31.4473 30.7673 31.5 30.6441 31.5 30.5156V4.84375C31.5 4.71529 31.4473 4.59208 31.3536 4.50125C31.2598 4.41041 31.1326 4.35938 31 4.35938ZM27.5 10.1719V5.32812H30.5V10.1719H27.5ZM30.5 20.8281H24.5V14.0469H30.5V20.8281ZM16.5 14.0469H23.5V20.8281H16.5V14.0469ZM7.5 14.0469V20.8281H1.5V14.0469H7.5ZM12.5 8.23438C12.5 6.82969 14.86 5.42984 16 4.89219C17.14 5.425 19.5 6.82533 19.5 8.23438V10.1719H16.5V7.75C16.5 7.62154 16.4473 7.49833 16.3536 7.4075C16.2598 7.31666 16.1326 7.26562 16 7.26562C15.8674 7.26562 15.7402 7.31666 15.6464 7.4075C15.5527 7.49833 15.5 7.62154 15.5 7.75V10.1719H12.5V8.23438ZM1.5 5.32812H4.5V10.1719H1.5V5.32812ZM4.5 27.6094C4.36739 27.6094 4.24021 27.6604 4.14645 27.7512C4.05268 27.8421 4 27.9653 4 28.0938V30.0312H1.5V21.7969H7.5V30.0312H5V28.0938C5 27.9653 4.94732 27.8421 4.85355 27.7512C4.75979 27.6604 4.63261 27.6094 4.5 27.6094ZM12 27.6094C11.8674 27.6094 11.7402 27.6604 11.6464 27.7512C11.5527 27.8421 11.5 27.9653 11.5 28.0938V30.0312H8.5V21.7969H15.5V30.0312H12.5V28.0938C12.5 27.9653 12.4473 27.8421 12.3536 27.7512C12.2598 27.6604 12.1326 27.6094 12 27.6094ZM20 27.6094C19.8674 27.6094 19.7402 27.6604 19.6464 27.7512C19.5527 27.8421 19.5 27.9653 19.5 28.0938V30.0312H16.5V21.7969H23.5V30.0312H20.5V28.0938C20.5 27.9653 20.4473 27.8421 20.3536 27.7512C20.2598 27.6604 20.1326 27.6094 20 27.6094ZM28 30.0312V28.0938C28 27.9653 27.9473 27.8421 27.8536 27.7512C27.7598 27.6604 27.6326 27.6094 27.5 27.6094C27.3674 27.6094 27.2402 27.6604 27.1464 27.7512C27.0527 27.8421 27 27.9653 27 28.0938V30.0312H24.5V21.7969H30.5V30.0312H28Z" fill="#AB6702"/>
</svg>
