<svg width="25" height="25" viewBox="0 0 25 25" fill="none" xmlns="http://www.w3.org/2000/svg">
<path fill-rule="evenodd" clip-rule="evenodd" d="M11.7795 2.08331C14.3274 2.08331 16.4003 4.15623 16.4003 6.70415V7.67498C16.4003 8.10623 16.0503 8.45623 15.619 8.45623C15.1878 8.45623 14.8378 8.10623 14.8378 7.67498V6.70415C14.8378 5.01665 13.4659 3.64581 11.7795 3.64581H6.70133C5.01695 3.64581 3.64612 5.01665 3.64612 6.70415V18.2969C3.64612 19.9833 5.01695 21.3541 6.70133 21.3541H11.7909C13.4701 21.3541 14.8378 19.9875 14.8378 18.3083V17.326C14.8378 16.8948 15.1878 16.5448 15.619 16.5448C16.0503 16.5448 16.4003 16.8948 16.4003 17.326V18.3083C16.4003 20.85 14.3315 22.9166 11.7909 22.9166H6.70133C4.15549 22.9166 2.08362 20.8448 2.08362 18.2969V6.70415C2.08362 4.15623 4.15549 2.08331 6.70133 2.08331H11.7795ZM20.1962 8.9104L23.2462 11.9469C23.2734 11.9739 23.2978 12.0019 23.3201 12.0316L23.2462 11.9469C23.2831 11.9832 23.3159 12.023 23.3444 12.0654C23.357 12.0846 23.369 12.1045 23.3803 12.1249C23.3893 12.1408 23.3977 12.1575 23.4055 12.1744C23.412 12.1894 23.4184 12.2043 23.4242 12.2195C23.4321 12.2393 23.4389 12.2597 23.445 12.2803C23.4495 12.2965 23.4537 12.3127 23.4574 12.3291C23.462 12.349 23.4657 12.3691 23.4686 12.3892C23.4702 12.4023 23.4718 12.4161 23.473 12.4299C23.4754 12.4537 23.4764 12.4768 23.4764 12.5L23.4711 12.5646L23.469 12.6059C23.4687 12.6077 23.4685 12.6095 23.4682 12.6112L23.4764 12.5C23.4764 12.5578 23.47 12.6151 23.4576 12.6707C23.4537 12.6872 23.4495 12.7034 23.4448 12.7194C23.4389 12.7403 23.4321 12.7606 23.4244 12.7807C23.4184 12.7956 23.412 12.8106 23.4053 12.8253C23.3977 12.8425 23.3893 12.8591 23.3804 12.8755C23.369 12.8955 23.357 12.9153 23.344 12.9346C23.3367 12.946 23.3287 12.9573 23.3204 12.9684C23.2956 13.001 23.2685 13.0317 23.2393 13.0601L20.1962 16.0906C20.0441 16.2427 19.8441 16.3187 19.6452 16.3187C19.4452 16.3187 19.2441 16.2427 19.0921 16.0885C18.7879 15.7823 18.7889 15.2885 19.0941 14.9844L20.8024 13.2812H10.1522C9.72091 13.2812 9.37091 12.9312 9.37091 12.5C9.37091 12.0687 9.72091 11.7187 10.1522 11.7187H20.8045L19.0941 10.0166C18.7889 9.71248 18.7868 9.21873 19.0921 8.91248C19.3962 8.60623 19.89 8.60623 20.1962 8.9104Z" fill="#1D1D1D"/>
</svg>
