<svg width="25" height="25" viewBox="0 0 25 25" fill="none" xmlns="http://www.w3.org/2000/svg">
<path d="M11.0469 19C11.0469 19.3978 10.8938 19.7794 10.6213 20.0607C10.3488 20.342 9.97914 20.5 9.59375 20.5H7.17188V23C7.17188 23.3978 7.01878 23.7794 6.74626 24.0607C6.47375 24.342 6.10414 24.5 5.71875 24.5C5.33336 24.5 4.96375 24.342 4.69124 24.0607C4.41872 23.7794 4.26562 23.3978 4.26562 23V20.5H1.84375C1.45836 20.5 1.08875 20.342 0.816236 20.0607C0.543722 19.7794 0.390625 19.3978 0.390625 19C0.390625 18.6022 0.543722 18.2206 0.816236 17.9393C1.08875 17.658 1.45836 17.5 1.84375 17.5H4.26562V15C4.26562 14.6022 4.41872 14.2206 4.69124 13.9393C4.96375 13.658 5.33336 13.5 5.71875 13.5C6.10414 13.5 6.47375 13.658 6.74626 13.9393C7.01878 14.2206 7.17188 14.6022 7.17188 15V17.5H9.59375C9.97914 17.5 10.3488 17.658 10.6213 17.9393C10.8938 18.2206 11.0469 18.6022 11.0469 19ZM9.59375 3.5H1.84375C1.45836 3.5 1.08875 3.65804 0.816236 3.93934C0.543722 4.22065 0.390625 4.60218 0.390625 5C0.390625 5.39783 0.543722 5.77936 0.816236 6.06066C1.08875 6.34197 1.45836 6.5 1.84375 6.5H9.59375C9.97914 6.5 10.3488 6.34197 10.6213 6.06066C10.8938 5.77936 11.0469 5.39783 11.0469 5C11.0469 4.60218 10.8938 4.22065 10.6213 3.93934C10.3488 3.65804 9.97914 3.5 9.59375 3.5ZM15.4062 18.0083H23.1562C23.5416 18.0083 23.9112 17.8503 24.1838 17.569C24.4563 17.2877 24.6094 16.9061 24.6094 16.5083C24.6094 16.1105 24.4563 15.7289 24.1838 15.4476C23.9112 15.1663 23.5416 15.0083 23.1562 15.0083H15.4062C15.0209 15.0083 14.6512 15.1663 14.3787 15.4476C14.1062 15.7289 13.9531 16.1105 13.9531 16.5083C13.9531 16.9061 14.1062 17.2877 14.3787 17.569C14.6512 17.8503 15.0209 18.0083 15.4062 18.0083ZM23.1562 19.9917H15.4062C15.0209 19.9917 14.6512 20.1497 14.3787 20.431C14.1062 20.7123 13.9531 21.0939 13.9531 21.4917C13.9531 21.8895 14.1062 22.2711 14.3787 22.5524C14.6512 22.8337 15.0209 22.9917 15.4062 22.9917H23.1562C23.5416 22.9917 23.9112 22.8337 24.1838 22.5524C24.4563 22.2711 24.6094 21.8895 24.6094 21.4917C24.6094 21.0939 24.4563 20.7123 24.1838 20.431C23.9112 20.1497 23.5416 19.9917 23.1562 19.9917ZM15.3475 9.06067C15.62 9.34197 15.9896 9.5 16.375 9.5C16.7604 9.5 17.13 9.34197 17.4025 9.06067L19.2812 7.12134L21.16 9.06067C21.4326 9.34165 21.8021 9.49941 22.1873 9.49927C22.5725 9.49913 22.9419 9.34111 23.2143 9.05993C23.4867 8.77875 23.6398 8.39743 23.6399 7.99978C23.6401 7.60214 23.4872 7.22071 23.215 6.93933L21.3363 5L23.215 3.06067C23.4872 2.7793 23.6401 2.39787 23.6399 2.00022C23.6398 1.60257 23.4867 1.22125 23.2143 0.940076C22.9419 0.658898 22.5725 0.500872 22.1873 0.500733C21.8021 0.500593 21.4326 0.658352 21.16 0.939333L19.2812 2.87866L17.4025 0.939333C17.1299 0.658352 16.7604 0.500593 16.3752 0.500733C15.99 0.500872 15.6206 0.658898 15.3482 0.940076C15.0758 1.22125 14.9227 1.60257 14.9226 2.00022C14.9224 2.39787 15.0753 2.7793 15.3475 3.06067L17.2262 5L15.3475 6.93933C15.075 7.22065 14.9219 7.60218 14.9219 8C14.9219 8.39783 15.075 8.77936 15.3475 9.06067Z" fill="#272727"/>
</svg>
