<svg width="25" height="25" viewBox="0 0 25 25" fill="none" xmlns="http://www.w3.org/2000/svg">
<path fill-rule="evenodd" clip-rule="evenodd" d="M17.0146 2.08331C20.5448 2.08331 22.9166 4.5604 22.9166 8.24581V16.7541C22.9166 20.4396 20.5448 22.9166 17.0135 22.9166H7.98435C4.45415 22.9166 2.08331 20.4396 2.08331 16.7541V8.24581C2.08331 4.5604 4.45415 2.08331 7.98435 2.08331H17.0146ZM17.0146 3.64581H7.98435C5.34894 3.64581 3.64581 5.45102 3.64581 8.24581V16.7541C3.64581 19.5489 5.34894 21.3541 7.98435 21.3541H17.0135C19.65 21.3541 21.3541 19.5489 21.3541 16.7541V8.24581C21.3541 5.45102 19.65 3.64581 17.0146 3.64581ZM16.6127 11.4726C17.1887 11.4726 17.6544 11.9382 17.6544 12.5143C17.6544 13.0903 17.1887 13.5559 16.6127 13.5559C16.0366 13.5559 15.5658 13.0903 15.5658 12.5143C15.5658 11.9382 16.0273 11.4726 16.6023 11.4726H16.6127ZM12.4359 11.4726C13.012 11.4726 13.4776 11.9382 13.4776 12.5143C13.4776 13.0903 13.012 13.5559 12.4359 13.5559C11.8599 13.5559 11.3901 13.0903 11.3901 12.5143C11.3901 11.9382 11.8505 11.4726 12.4265 11.4726H12.4359ZM8.26008 11.4726C8.83613 11.4726 9.30175 11.9382 9.30175 12.5143C9.30175 13.0903 8.83613 13.5559 8.26008 13.5559C7.68404 13.5559 7.21321 13.0903 7.21321 12.5143C7.21321 11.9382 7.67467 11.4726 8.25071 11.4726H8.26008Z" fill="#1D1D1D"/>
</svg>
