<svg width="25" height="25" viewBox="0 0 25 25" fill="none" xmlns="http://www.w3.org/2000/svg">
<path fill-rule="evenodd" clip-rule="evenodd" d="M10.7545 20.9438C11.294 21.5448 11.9868 21.875 12.7055 21.875H12.7065C13.4284 21.875 14.1243 21.5448 14.6649 20.9427C14.9545 20.6229 15.4482 20.5969 15.768 20.8854C16.0888 21.174 16.1149 21.6688 15.8263 21.9885C14.9847 22.9229 13.8774 23.4375 12.7065 23.4375H12.7045C11.5368 23.4365 10.4315 22.9219 9.59301 21.9875C9.30446 21.6677 9.33051 21.1729 9.65134 20.8854C9.97217 20.5958 10.4659 20.6219 10.7545 20.9438ZM12.7574 1.04167C17.3876 1.04167 20.498 4.64792 20.498 8.01563C20.498 9.74792 20.9386 10.4823 21.4063 11.2615C21.8688 12.0302 22.3928 12.9031 22.3928 14.5531C22.0293 18.7688 17.6282 19.1125 12.7574 19.1125C7.88655 19.1125 3.48446 18.7688 3.12507 14.6198C3.12196 12.9031 3.64592 12.0302 4.10842 11.2615L4.2717 10.9866C4.67371 10.2957 5.01676 9.54412 5.01676 8.01563C5.01676 4.64792 8.12717 1.04167 12.7574 1.04167ZM12.7574 2.60417C9.11676 2.60417 6.57926 5.45626 6.57926 8.01563C6.57926 10.1813 5.97821 11.1823 5.44696 12.0656C5.02092 12.775 4.68446 13.3354 4.68446 14.5531C4.85842 16.5177 6.1553 17.55 12.7574 17.55C19.323 17.55 20.6605 16.4719 20.8334 14.4854C20.8303 13.3354 20.4938 12.775 20.0678 12.0656C19.5366 11.1823 18.9355 10.1813 18.9355 8.01563C18.9355 5.45626 16.398 2.60417 12.7574 2.60417Z" fill="#1D1D1D"/>
</svg>
