<svg width="25" height="25" viewBox="0 0 25 25" fill="none" xmlns="http://www.w3.org/2000/svg">
<path fill-rule="evenodd" clip-rule="evenodd" d="M13.0038 2.08331C14.184 2.08331 20.3767 4.20935 21.1965 5.02915C21.8798 5.71248 21.8694 6.26456 21.8215 8.9104C21.8027 9.97081 21.7767 11.4156 21.7767 13.4156C21.7767 20.5844 13.5788 23.1489 13.2298 23.2541C13.1558 23.2771 13.0798 23.2875 13.0038 23.2875C12.9277 23.2875 12.8517 23.2771 12.7777 23.2541C12.4288 23.1489 4.23085 20.5844 4.23085 13.4156C4.23085 11.4187 4.20481 9.97394 4.18606 8.91352C4.1775 8.44049 4.17014 8.03433 4.16772 7.68234L4.16742 7.28515C4.17635 5.98032 4.29882 5.54165 4.8121 5.02915C5.62981 4.20935 11.8225 2.08331 13.0038 2.08331ZM13.0038 3.64581C12.1204 3.64581 6.54751 5.60831 5.90481 6.14477C5.71522 6.3354 5.70793 6.66665 5.74856 8.88436C5.76731 9.9531 5.79335 11.4052 5.79335 13.4156C5.79335 18.8333 11.7538 21.2385 13.0027 21.6812C14.2506 21.2364 20.2142 18.8177 20.2142 13.4156C20.2142 11.4031 20.2402 9.94998 20.26 8.88123C20.2996 6.66561 20.2923 6.33435 20.0913 6.13436C19.4611 5.60831 13.8871 3.64581 13.0038 3.64581ZM16.8803 9.72863C17.1855 10.0338 17.1855 10.5286 16.8803 10.8338L12.8199 14.8953C12.7032 15.0128 12.5526 15.089 12.3908 15.1147L12.2678 15.1245C12.0605 15.1245 11.8616 15.0422 11.7147 14.8953L9.74387 12.9224C9.4397 12.6172 9.4397 12.1213 9.74491 11.8172C10.0491 11.512 10.5449 11.512 10.8501 11.8172L12.2678 13.237L15.7762 9.72863C16.0814 9.42342 16.5751 9.42342 16.8803 9.72863Z" fill="#1D1D1D"/>
</svg>
