<svg width="27" height="26" viewBox="0 0 27 26" fill="none" xmlns="http://www.w3.org/2000/svg">
<path d="M26.0211 6.785C26.3989 6.255 26.5539 5.675 26.3408 5.32C25.2147 4.14924 23.9838 3.09119 22.6644 2.16C22.3598 2.01642 22.0234 1.95971 21.6904 1.99576C21.3573 2.03181 21.0397 2.15931 20.7705 2.365C20.3927 2.725 17.6657 7 17.6657 7C17.4127 6.41653 17.2352 5.80126 17.1377 5.17C16.8832 3.74918 16.5599 2.34241 16.1689 0.955C16.0188 0.735 15.2438 0.795 14.6528 0.955C14.0619 1.115 10.2935 1.92 7.35816 2.67C4.42285 3.42 0.94019 4.365 0.867534 4.425C0.794878 4.485 0.562378 6.895 0.562378 6.975C0.562378 7.21 2.49988 13.6 3.5316 16.85C4.56332 20.1 5.84691 24.35 6.25378 24.91C6.66066 25.47 7.73597 25.115 10.8989 24.13C14.0619 23.145 17.9853 22.07 19.6177 21.445C21.25 20.82 21.0127 19.99 20.9061 19.445C20.7996 18.9 19.9374 15.88 19.9374 15.88C20.1505 15.3383 20.4411 14.8327 20.7996 14.38C21.5261 13.3 25.6433 7.32 26.0211 6.785ZM19.4385 6.13C21.376 3.445 21.7102 2.96 21.9524 3.035C22.5286 3.37892 23.0835 3.75966 23.6138 4.175C24.0255 4.475 24.1466 4.675 24.0982 4.725C24.0497 4.775 19.0461 11.16 18.4697 12C17.8933 12.84 17.593 13.42 17.501 13.435C17.4089 13.45 17.0602 13.06 16.9391 13C16.818 12.94 16.5032 12.81 16.5468 12.735C16.5903 12.66 21.2839 6.235 22.0735 5.235C22.863 4.235 22.9938 4.185 22.9357 4.075C22.8775 3.965 22.5869 3.655 22.4513 3.765C22.3157 3.875 17.53 10.3 17.0166 11.115C16.7103 11.6591 16.3154 12.1445 15.8493 12.55C15.7621 12.55 14.4446 12.46 14.5802 12.35C14.5802 12.35 17.5155 8.82 19.4385 6.13ZM18.5472 16.32C18.4988 16.395 16.881 17.255 16.7889 17.13C16.6495 16.8596 16.4331 16.6397 16.1689 16.5C15.7427 16.28 14.8224 15.845 14.6238 15.78C14.4252 15.715 14.1394 15.78 14.1394 15.75C14.1394 15.72 14.1103 13.28 14.1394 13.155C14.2266 12.925 15.8977 12.795 17.0166 13.89C17.7408 14.5328 18.2719 15.3759 18.5472 16.32ZM10.8844 21.88C9.87207 22.175 7.66332 23.02 7.49378 22.835C7.32425 22.65 5.81785 18.13 4.8491 14.66C3.88035 11.19 2.32066 5.35 2.35941 5.175C2.39816 5 7.518 3.725 9.4555 3.175C11.393 2.625 15.268 1.77 15.3164 1.82C15.3649 1.87 16.9536 7.96 16.9246 8C16.8955 8.04 13.9457 11.89 13.655 12.205C13.5761 12.2961 13.5301 12.4126 13.5248 12.5347C13.5195 12.6568 13.5552 12.777 13.626 12.875C13.626 12.875 13.7761 12.97 13.7035 13.78C13.6308 14.59 13.2918 18.14 13.5485 18.515C13.8052 18.89 13.9747 18.985 14.5657 18.75C15.1566 18.515 18.925 16.69 18.9977 16.75C19.3566 17.8007 19.6606 18.8706 19.9083 19.955C19.8938 20.035 11.9016 21.585 10.8844 21.88ZM19.8938 14C19.8631 13.545 19.7393 13.1019 19.5305 12.7C19.3949 12.64 19.2108 12.95 19.2108 13.095C19.2108 13.24 19.5741 14.22 19.545 14.39C19.5202 14.5102 19.4795 14.6263 19.4239 14.735C19.3009 14.236 19.1488 13.7451 18.9686 13.265C18.9105 13.265 18.6344 13.5 18.6489 13.7C18.6635 13.9 19.1333 15.125 19.1333 15.125C19.1333 15.125 18.9977 15.485 18.9396 15.345C18.687 14.8002 18.3608 14.2952 17.9708 13.845C17.8594 13.75 21.7344 8.5 22.9793 6.925C24.2241 5.35 24.4808 5.145 24.568 5.13C24.6552 5.115 25.3721 5.74 25.28 6.02C25.188 6.3 20.7996 12.74 20.3927 13.27C19.9858 13.8 19.8938 14.24 19.8938 14ZM13.1416 4.945C13.2627 4.88 13.2482 4.55 13.098 4.445C12.9478 4.34 11.766 4.71 8.51097 5.52C5.25597 6.33 4.52457 6.925 4.51488 7C4.46644 7.22 4.62144 7.47 4.7716 7.47C6.00152 6.91117 7.25946 6.42047 8.54003 6C10.5066 5.5 13.0157 5 13.1416 4.945ZM14.5657 7.91C14.7594 7.85 14.5947 7.41 14.4882 7.35C13.1739 7.60187 11.8789 7.95111 10.6132 8.395C8.67566 9.02 5.76941 9.925 5.72582 10.1C5.68222 10.275 5.69191 10.535 5.90503 10.57C6.11816 10.605 7.30003 10.07 9.688 9.285C12.076 8.5 14.3671 8 14.5657 7.91ZM12.0469 12.585C11.4281 12.5656 10.8091 12.6176 10.2014 12.74C9.29082 12.85 6.62191 13.27 6.50566 13.505C6.38941 13.74 6.50566 14.005 6.71878 14.005C6.93191 14.005 7.08207 13.975 8.69988 13.505C9.81091 13.1884 10.9448 12.9644 12.0905 12.835C12.2939 12.85 12.231 12.66 12.0469 12.585ZM11.6546 15.695C11.9694 15.615 11.8483 15.52 11.8628 15.445C11.8774 15.37 11.485 15.3 10.0464 15.63C8.60785 15.96 7.68753 16.35 7.49378 16.585C7.46936 16.6188 7.45226 16.6577 7.44364 16.699C7.43501 16.7402 7.43506 16.7829 7.44379 16.8241C7.45251 16.8654 7.4697 16.9042 7.4942 16.938C7.51871 16.9718 7.54995 16.9997 7.58582 17.02C7.70691 17.05 7.73597 16.975 9.068 16.395C9.89351 16.046 10.7599 15.8107 11.6449 15.695H11.6546ZM10.2014 18.535C9.52728 18.6769 8.87531 18.9142 8.26394 19.24C8.23474 19.3083 8.22745 19.3844 8.24313 19.4573C8.25882 19.5301 8.29666 19.5959 8.35113 19.645C8.83876 19.5569 9.31606 19.4161 9.77519 19.225C10.3661 19.005 12.2891 18.425 12.1971 18.365C11.5289 18.3075 10.8562 18.3649 10.2063 18.535H10.2014Z" fill="#00C773"/>
</svg>
