<svg width="25" height="25" viewBox="0 0 25 25" fill="none" xmlns="http://www.w3.org/2000/svg">
<path fill-rule="evenodd" clip-rule="evenodd" d="M12.382 15.0146L12.4996 15.0146L12.7627 15.0155C14.7738 15.0288 19.3695 15.2319 19.3695 18.3469C19.3695 21.4414 14.934 21.6432 12.7941 21.6564L12.0013 21.6564C9.99012 21.6431 5.39348 21.4402 5.39348 18.3292C5.39348 15.2308 9.99012 15.0287 12.0013 15.0155L12.2644 15.0146C12.3052 15.0146 12.3444 15.0146 12.382 15.0146ZM12.382 16.5771C9.90702 16.5771 6.95598 16.8813 6.95598 18.3292C6.95598 19.7443 9.73088 20.0752 12.1558 20.0939L12.382 20.0948C14.857 20.0948 17.807 19.7917 17.807 18.3469C17.807 16.8844 14.857 16.5771 12.382 16.5771ZM20.667 14.5919C23.191 14.97 23.7212 16.1554 23.7212 17.0835C23.7212 17.6502 23.4983 18.6846 22.0087 19.2523C21.917 19.2867 21.8233 19.3033 21.7306 19.3033C21.416 19.3033 21.1191 19.1117 21.0004 18.8002C20.8462 18.3971 21.0493 17.945 21.4524 17.7919C22.1587 17.5231 22.1587 17.2263 22.1587 17.0835C22.1587 16.6273 21.5785 16.3085 20.4347 16.1377C20.0087 16.0731 19.7139 15.6763 19.7774 15.2481C19.841 14.821 20.2368 14.5367 20.667 14.5919ZM4.98556 15.2481C5.0491 15.6763 4.75431 16.0731 4.32827 16.1377C3.18452 16.3085 2.60431 16.6273 2.60431 17.0835C2.60431 17.2263 2.60431 17.5221 3.3116 17.7919C3.71473 17.945 3.91785 18.3971 3.76368 18.8002C3.64493 19.1117 3.34806 19.3033 3.03348 19.3033C2.94077 19.3033 2.84702 19.2867 2.75535 19.2523C1.26473 18.6835 1.04181 17.6492 1.04181 17.0835C1.04181 16.1565 1.57202 14.97 4.09702 14.5919C4.52723 14.5377 4.92098 14.821 4.98556 15.2481ZM12.382 4.16667C15.007 4.16667 17.1414 6.30209 17.1414 8.92605C17.1414 11.55 15.007 13.6854 12.382 13.6854H12.3539C11.0831 13.6813 9.89243 13.1833 9.00077 12.2833C8.10702 11.3844 7.61847 10.1906 7.62364 8.92292C7.62364 6.30209 9.75806 4.16667 12.382 4.16667ZM12.382 5.72917C10.6195 5.72917 9.18616 7.16355 9.18616 8.92605C9.18306 9.78021 9.51014 10.5792 10.1091 11.1823C10.7081 11.7854 11.506 12.1198 12.356 12.1229L12.382 12.9042V12.1229C14.1445 12.1229 15.5789 10.6896 15.5789 8.92605C15.5789 7.16355 14.1445 5.72917 12.382 5.72917ZM18.8289 5.18698C20.6601 5.48803 21.9904 7.05469 21.9904 8.91198C21.9862 10.7818 20.5893 12.3859 18.7404 12.6453C18.7039 12.6505 18.6674 12.6526 18.632 12.6526C18.2487 12.6526 17.9143 12.3703 17.8591 11.9797C17.7997 11.5516 18.0966 11.1568 18.5247 11.0974C19.6081 10.9453 20.4258 10.0057 20.4279 8.9099C20.4279 7.82344 19.6487 6.90469 18.5747 6.72865C18.1497 6.65886 17.8612 6.25678 17.931 5.83073C18.0018 5.40469 18.4008 5.11928 18.8289 5.18698ZM6.83306 5.83073C6.90285 6.25678 6.61431 6.65886 6.18931 6.72865C5.11535 6.90469 4.33618 7.82344 4.33618 8.91198C4.33827 10.0057 5.15598 10.9464 6.23827 11.0974C6.66639 11.1568 6.96327 11.5516 6.90389 11.9797C6.84868 12.3703 6.51431 12.6526 6.13098 12.6526C6.09556 12.6526 6.0591 12.6505 6.02264 12.6453C4.17368 12.3859 2.77785 10.7818 2.77368 8.91407C2.77368 7.05469 4.10389 5.48803 5.93514 5.18698C6.37368 5.11823 6.76223 5.40678 6.83306 5.83073Z" fill="#1D1D1D"/>
</svg>
